<svg width="21" height="22" viewBox="0 0 21 22" fill="none" xmlns="http://www.w3.org/2000/svg">
<path d="M17.8935 2.698C15.8595 1.312 13.2175 1.373 11.042 2.4C10.967 2.308 10.8735 2.2045 10.758 2.088C8.48204 -0.0769997 4.62254 0.3 2.41704 2.394C-4.07546 7.5575 3.76554 25.8205 12.0465 20.295C12.457 20.032 12.6825 19.652 12.629 19.5285C12.6075 19.481 12.559 19.476 12.4905 19.4955C12.6955 19.3995 13.0485 19.1315 13.449 18.753C15.3685 16.935 17.3685 15.0855 19.1695 13.156C21.7 9.8915 21.509 5.1015 17.8935 2.698ZM1.11804 6.5335C1.88754 2.3895 6.89754 -0.31 10.4315 2.4665C10.495 2.522 10.555 2.57 10.6135 2.615C9.85054 3.0325 9.15754 3.572 8.58704 4.2125C8.19904 4.6555 7.82404 5.1145 7.46554 5.5875C6.25454 6.3075 3.60004 9.3685 3.40954 9.6805C3.28104 9.855 3.59654 10.1575 3.76004 10.037C4.39454 9.6555 4.97504 9.205 5.51704 8.708C4.87504 10.013 4.40954 11.398 4.20604 12.855C3.97304 14.483 4.06704 16.1235 4.45004 17.7535C4.50204 17.905 4.56304 18.0495 4.62654 18.192C1.92854 15.049 0.452044 9.6345 1.11804 6.5335ZM17.505 13.814C16.024 15.3305 14.6 16.9035 13.096 18.399C12.631 18.8815 12.296 19.333 12.304 19.4845C12.305 19.505 12.3145 19.5165 12.3275 19.5245C12.153 19.5605 11.757 19.8065 11.1885 20.025C9.16754 20.926 7.22804 20.573 5.86154 18.799C5.14554 18.013 5.11754 17.0535 4.99304 16.0335C4.78004 14 5.13154 11.939 5.95204 10.039C7.19854 7.411 8.96004 4.4125 11.7225 3.1855C14.5505 1.8885 17.8335 2.91 19.337 5.6485C20.7775 8.323 19.699 11.8555 17.505 13.814ZM17.3365 8.7495C15.251 9.0285 13.1945 9.2035 11.1615 8.7325C10.9555 8.702 10.9475 8.265 11.165 8.2325C11.6335 8.096 18.6925 7.621 17.3365 8.7495ZM15.498 11.478C15.4855 11.5915 15.419 11.6765 15.339 11.6925C13.8305 12.0525 12.241 12.0995 10.689 11.981C10.131 11.9235 9.66504 11.7865 9.16104 11.6935C8.95604 11.6625 8.94754 11.2255 9.16604 11.1935C10.719 11.027 12.238 11.009 13.781 11.0735C14.259 11.0975 14.8095 11.089 15.3345 11.1925C15.4405 11.212 15.5135 11.34 15.498 11.478ZM13.338 14.758C11.8455 15.125 10.2635 15.037 8.70504 14.9145C8.18454 14.8755 7.67604 14.8045 7.16254 14.7065C6.95504 14.6775 6.94704 14.2405 7.16304 14.2065C9.23554 13.839 11.2195 14.017 13.335 14.258C13.545 14.286 13.5525 14.7225 13.338 14.758Z" fill="#D36834"/>
</svg>
