<svg width="20" height="21" viewBox="0 0 20 21" fill="none" xmlns="http://www.w3.org/2000/svg">
<path d="M6.2334 15.7917L8.81673 17.7917C9.15006 18.125 9.90006 18.2917 10.4001 18.2917H13.5667C14.5667 18.2917 15.6501 17.5417 15.9001 16.5417L17.9001 10.4583C18.3167 9.29168 17.5667 8.29168 16.3167 8.29168H12.9834C12.4834 8.29168 12.0667 7.87501 12.1501 7.29168L12.5667 4.62501C12.7334 3.87501 12.2334 3.04168 11.4834 2.79168C10.8167 2.54168 9.9834 2.87501 9.65006 3.37501L6.2334 8.45835" stroke="#D36834" stroke-width="1.5" stroke-miterlimit="10"/>
<path d="M1.9834 15.7917V7.62502C1.9834 6.45835 2.4834 6.04169 3.65007 6.04169H4.4834C5.65006 6.04169 6.15007 6.45835 6.15007 7.62502V15.7917C6.15007 16.9584 5.65006 17.375 4.4834 17.375H3.65007C2.4834 17.375 1.9834 16.9584 1.9834 15.7917Z" stroke="#D36834" stroke-width="1.5" stroke-linecap="round" stroke-linejoin="round"/>
</svg>
