<svg width="20" height="20" viewBox="0 0 20 20" fill="none" xmlns="http://www.w3.org/2000/svg">
<path d="M11.4417 2.925L12.9083 5.85833C13.1083 6.26666 13.6417 6.65833 14.0917 6.73333L16.75 7.175C18.45 7.45833 18.85 8.69166 17.625 9.90833L15.5583 11.975C15.2083 12.325 15.0167 13 15.125 13.4833L15.7167 16.0417C16.1833 18.0667 15.1083 18.85 13.3167 17.7917L10.825 16.3167C10.375 16.05 9.63332 16.05 9.17499 16.3167L6.68332 17.7917C4.89999 18.85 3.81665 18.0583 4.28332 16.0417L4.87499 13.4833C4.98332 13 4.79165 12.325 4.44165 11.975L2.37499 9.90833C1.15832 8.69166 1.54999 7.45833 3.24999 7.175L5.90832 6.73333C6.34999 6.65833 6.88332 6.26666 7.08332 5.85833L8.54999 2.925C9.34999 1.33333 10.65 1.33333 11.4417 2.925Z" fill="#D36834"/>
</svg>
